<svg xmlns="http://www.w3.org/2000/svg" viewBox="0 0 512 512" role="img" aria-label="ด่านศุลกากรเซลล์">
  <defs><linearGradient id="bg" x1="0" y1="0" x2="1" y2="1">
    <stop offset="0" stop-color="#FBF8EC"/><stop offset="1" stop-color="#EAE4C6"/></linearGradient></defs>
  <rect width="512" height="512" rx="112" fill="url(#bg)"/>
  <rect x="0" y="96" width="512" height="120" fill="#DCEBF2"/>
  <rect x="0" y="296" width="512" height="120" fill="#F6EEDA"/>
  <g stroke="#C77A3A" stroke-width="12" stroke-linecap="round" fill="none">
    <path d="M96 232 q-8 30 2 48 M124 232 q8 30 -2 48 M392 232 q-8 30 2 48 M420 232 q8 30 -2 48"/>
    <path d="M96 296 q-8 -30 2 -48 M124 296 q8 -30 -2 -48 M392 296 q-8 -30 2 -48 M420 296 q8 -30 -2 -48"/>
  </g>
  <g fill="#F26716" stroke="#fff" stroke-width="6">
    <circle cx="110" cy="216" r="30"/><circle cx="110" cy="312" r="30"/>
    <circle cx="406" cy="216" r="30"/><circle cx="406" cy="312" r="30"/>
  </g>
  <g transform="translate(256 264)">
    <path d="M-88 -104 q-22 104 0 208 h56 q-18 -104 0 -208 z" fill="#AFD2BC" stroke="#2F7D4F" stroke-width="14"/>
    <path d="M88 -104 q22 104 0 208 h-56 q18 -104 0 -208 z" fill="#AFD2BC" stroke="#2F7D4F" stroke-width="14"/>
    <g fill="#5C90A6"><circle cx="0" cy="-58" r="20"/><circle cx="0" cy="4" r="20"/><circle cx="0" cy="66" r="20"/></g>
  </g>
</svg>
